<svg xmlns="http://www.w3.org/2000/svg" width="146" height="28" viewBox="0 0 146 28">
    <g fill="none" fill-rule="evenodd">
        <g transform="translate(1 1)">
            <ellipse cx="12.7" cy="13.029" stroke="#FFF" stroke-width="1.393" rx="12.7" ry="13.029"/>
            <path fill="#FF8896" d="M22.193 13.844c-.403 5.016-4.5 8.957-9.493 8.957s-9.089-3.941-9.492-8.957h18.985z"/>
        </g>
        <path fill="#FFF" fill-rule="nonzero" d="M37.446 21.932h-2.444V6.58h2.444v15.353zm8.92-10.714c2.403 0 4.108 1.642 4.108 4.372v6.342h-2.321v-6.034c0-1.58-.904-2.545-2.3-2.545-1.459 0-2.445 1.108-2.445 2.565v6.014h-2.3v-10.53h2.177v1.396c.534-.923 1.54-1.58 3.081-1.58zM58.531 5.88c.39 0 .637.02.904.062v1.99a5.31 5.31 0 0 0-.657-.04c-1.171 0-1.972.76-1.972 1.99v1.52h2.588v1.99h-2.588v8.54h-2.3v-8.54h-1.993v-1.99h1.993V9.945c0-2.524 1.581-4.064 4.025-4.064zm5.429 16.051h-2.3V5.984h2.3v15.948zm12.535 0h-2.178v-1.375c-.39.78-1.335 1.58-2.978 1.58-2.382 0-3.861-1.703-3.861-4.248v-6.486h2.3v6.137c0 1.519.74 2.442 2.136 2.442 1.438 0 2.28-1.19 2.28-2.565v-6.014h2.3v10.53zm13.15-4.392h-7.743c.124 1.6 1.212 2.606 2.814 2.606 1.335 0 2.219-.554 2.506-1.498l2.321.123c-.41 1.868-2.32 3.366-4.765 3.366-3.102 0-5.32-2.052-5.32-5.46 0-3.427 2.198-5.46 5.258-5.46 3.02 0 4.93 1.992 4.93 5.194v1.129zm-4.95-4.352c-1.54 0-2.649.903-2.772 2.546h5.402c-.062-1.52-.924-2.546-2.63-2.546zm13.173-1.97c2.403 0 4.107 1.642 4.107 4.372v6.342h-2.32v-6.034c0-1.58-.904-2.545-2.301-2.545-1.458 0-2.444 1.108-2.444 2.565v6.014h-2.3v-10.53h2.177v1.396c.534-.923 1.54-1.58 3.08-1.58zm11.015 0c2.505 0 3.84 1.478 4.046 3.346l-2.3.123c-.083-.883-.637-1.499-1.808-1.499-1.089 0-1.643.452-1.643 1.17 0 .903.904.986 2.3 1.314 2.177.554 3.636 1.211 3.636 3.1 0 2.113-1.561 3.365-4.129 3.365-2.526 0-4.067-1.272-4.313-3.366l2.3-.143c.124.964.801 1.518 2.054 1.518 1.048 0 1.787-.41 1.787-1.19 0-.862-.554-1.067-2.28-1.478-2.136-.513-3.656-.965-3.656-3.079 0-1.888 1.459-3.181 4.006-3.181zm16.129 10.714h-2.177v-1.375c-.39.78-1.335 1.58-2.978 1.58-2.383 0-3.862-1.703-3.862-4.248v-6.486h2.3v6.137c0 1.519.74 2.442 2.137 2.442 1.437 0 2.28-1.19 2.28-2.565v-6.014h2.3v10.53zm8.858-10.652v2.237c-1.807 0-2.937 1.15-2.937 2.689v5.726h-2.3v-10.53h2.239v1.478c.39-.82 1.314-1.6 2.998-1.6zm11.837 6.26h-7.743c.123 1.6 1.212 2.606 2.814 2.606 1.335 0 2.218-.554 2.505-1.498l2.321.123c-.41 1.868-2.32 3.366-4.765 3.366-3.101 0-5.32-2.052-5.32-5.46 0-3.427 2.198-5.46 5.259-5.46 3.019 0 4.93 1.992 4.93 5.194v1.129zm-4.95-4.352c-1.54 0-2.65.903-2.773 2.546h5.402c-.061-1.52-.924-2.546-2.629-2.546z"/>
    </g>
</svg>
