<svg xmlns="http://www.w3.org/2000/svg" width="225" height="208" viewBox="0 0 225 208">
    <g fill="none" fill-rule="evenodd">
        <path stroke="#979797" stroke-dasharray="4" d="M.52 207.214C51.056 144.58 67.665 104.916 50.348 88.22 24.37 63.175-4.646 86.423 3.533 115.2c8.179 28.777 90.563 46.606 148.424-23.693 27.766-33.734 50.545-48.397 68.338-43.988 9.649 2.391 15.533 12.152 13.142 21.801a18 18 0 0 1-1.855 4.621l-4.239 7.396c-4.627 8.074-14.923 10.868-22.997 6.24a16.85 16.85 0 0 1-6.21-6.188C184.426 57.664 193.38 30.867 225 1"/>
        <g transform="rotate(-175 74.205 60.744)">
            <path fill="#FFF" stroke="#201D5E" d="M26.17 25.369L0 6.08 2.693.332l31.37 7.29"/>
            <path fill="#706BD7" fill-opacity=".581" d="M1.62 6.826l1.077-2.59 27.397 6.917L32.3 6.826 2.697 0 0 6.08z"/>
            <path stroke="#201D5E" stroke-width=".8" d="M4.767 9.909l5.851 4.467a4.407 4.407 0 0 1-2.01.903c-2.176.384-4.212-.849-4.547-2.752-.166-.943.115-1.873.706-2.618z"/>
            <path stroke="#201D5E" stroke-linecap="round" stroke-linejoin="round" d="M38.276 26.634l-4.213-4.575M35.535 18.947l6.73 3.112"/>
            <rect width="4" height="25" x="27.094" y="3.909" fill="#FF8896" rx="2" transform="rotate(25 29.094 16.41)"/>
            <path stroke="#201D5E" stroke-linecap="round" stroke-linejoin="round" d="M36.17 15.91h3.388M41.581 15.91H43"/>
        </g>
    </g>
</svg>
