<svg xmlns="http://www.w3.org/2000/svg" width="39" height="37" viewBox="0 0 39 37">
    <path fill="#201D5E" d="M37.797 17.16l-6.84 4.912c-1.017.73-1.443 2.026-1.055 3.209l2.755 7.949c.116.354.161.7.146 1.03-.097 2.134-2.785 3.594-4.756 2.179l-6.84-4.914c-.509-.366-1.108-.548-1.707-.548s-1.198.182-1.707.548l-6.84 4.914c-1.97 1.415-4.671-.045-4.757-2.18-.013-.33.033-.676.15-1.03l2.752-7.948c.388-1.183-.038-2.478-1.055-3.21l-6.84-4.912c-2.276-1.634-1.107-5.51 1.706-5.51h8.455c1.258 0 2.373-.483 2.762-1.666l2.612-8C17.173.661 18.336 0 19.5 0s2.327.661 2.762 1.983l2.612 8c.39 1.183 1.504 1.665 2.762 1.665h8.455c2.813 0 3.982 3.877 1.706 5.511z"/>
</svg>
